<svg width="323" height="42" viewBox="0 0 323 42" fill="none" xmlns="http://www.w3.org/2000/svg">
<g clip-path="url(#clip0_2_108)">
<path d="M292.437 7.875C292.245 7.875 292.062 7.91146 291.88 7.98958C291.703 8.0625 291.547 8.16667 291.411 8.30208C291.271 8.44271 291.167 8.59896 291.094 8.77604C291.021 8.95833 290.979 9.14063 290.979 9.33333V26.8333C290.979 27.026 291.021 27.2135 291.094 27.3958C291.167 27.5729 291.271 27.7292 291.411 27.8646C291.547 28.0052 291.703 28.1094 291.88 28.1823C292.062 28.2552 292.245 28.2917 292.437 28.2917H293.896V29.75C293.896 30.3333 294.01 30.8906 294.229 31.4271C294.453 31.9635 294.771 32.4375 295.182 32.8438C295.589 33.2552 296.062 33.5729 296.599 33.7917C297.135 34.0156 297.693 34.125 298.271 34.125C298.854 34.125 299.411 34.0156 299.948 33.7917C300.484 33.5729 300.958 33.2552 301.365 32.8438C301.776 32.4375 302.094 31.9635 302.318 31.4271C302.536 30.8906 302.646 30.3333 302.646 29.75V28.2917H311.396V29.75C311.396 30.3333 311.51 30.8906 311.729 31.4271C311.953 31.9635 312.271 32.4375 312.682 32.8438C313.089 33.2552 313.562 33.5729 314.099 33.7917C314.635 34.0156 315.193 34.125 315.771 34.125C316.354 34.125 316.911 34.0156 317.448 33.7917C317.984 33.5729 318.458 33.2552 318.865 32.8438C319.276 32.4375 319.594 31.9635 319.818 31.4271C320.036 30.8906 320.146 30.3333 320.146 29.75V28.2917H321.604C321.802 28.2917 321.984 28.2552 322.167 28.1823C322.344 28.1094 322.5 28.0052 322.635 27.8646C322.776 27.7292 322.88 27.5729 322.953 27.3958C323.026 27.2135 323.062 27.026 323.062 26.8333V18.0833C323.062 17.5625 322.844 17.1615 322.411 16.875L318.036 13.9583C317.792 13.7969 317.526 13.7135 317.229 13.7083H314.312V9.33333C314.312 9.14063 314.276 8.95833 314.203 8.77604C314.13 8.59896 314.026 8.44271 313.885 8.30208C313.75 8.16667 313.594 8.0625 313.417 7.98958C313.234 7.91146 313.052 7.875 312.854 7.875H292.437ZM293.896 10.7917H311.396V25.375H293.896V10.7917ZM300.458 13.7083V16.625H307.75V13.7083H300.458ZM314.312 16.625H316.792L320.146 18.8698V25.375H314.312V16.625ZM297.542 19.5417V22.4583H307.75V19.5417H297.542ZM296.812 28.2917H299.729V29.75C299.729 29.9427 299.693 30.1302 299.62 30.3125C299.547 30.4896 299.443 30.6458 299.302 30.7813C299.167 30.9219 299.01 31.026 298.833 31.099C298.651 31.1719 298.469 31.2083 298.271 31.2083C298.078 31.2083 297.896 31.1719 297.714 31.099C297.536 31.026 297.38 30.9219 297.245 30.7813C297.104 30.6458 297 30.4896 296.927 30.3125C296.854 30.1302 296.812 29.9427 296.812 29.75V28.2917ZM314.312 28.2917H317.229V29.75C317.229 29.9427 317.193 30.1302 317.12 30.3125C317.047 30.4896 316.943 30.6458 316.802 30.7813C316.667 30.9219 316.51 31.026 316.333 31.099C316.151 31.1719 315.969 31.2083 315.771 31.2083C315.578 31.2083 315.396 31.1719 315.214 31.099C315.036 31.026 314.88 30.9219 314.745 30.7813C314.604 30.6458 314.5 30.4896 314.427 30.3125C314.354 30.1302 314.312 29.9427 314.312 29.75V28.2917Z" fill="white"/>
<mask id="mask0_2_108" style="mask-type:luminance" maskUnits="userSpaceOnUse" x="-1" y="11" width="36" height="20">
<path d="M-0.0156307 11H34.9844V31H-0.0156307V11Z" fill="white"/>
</mask>
<g mask="url(#mask0_2_108)">
<path d="M4.75 11.2031C4.47395 11.2552 4.26041 11.474 4.20312 11.75L0.00520337 29.9479C-0.0416713 30.1563 0.0052037 30.375 0.135412 30.5365C0.270829 30.7031 0.473953 30.7969 0.682287 30.8021H34.2812C34.4948 30.7969 34.6927 30.7031 34.8281 30.5365C34.9583 30.375 35.0052 30.1563 34.9583 29.9479L30.7604 11.75C30.6875 11.4323 30.4062 11.2031 30.0833 11.2031H4.8802C4.85937 11.2031 4.83854 11.2031 4.8177 11.2031C4.79687 11.2031 4.77083 11.2031 4.75 11.2031ZM5.42708 12.6042H16.7812V13.3021H18.1823V12.6042H29.5365L33.4062 29.401H18.1823V27.3021H16.7812V29.401H1.55729L5.42708 12.6042ZM16.7812 14.7031V17.5H18.1823V14.7031H16.7812ZM16.7812 18.901V21.7031H18.1823V18.901H16.7812ZM16.7812 23.1042V25.901H18.1823V23.1042H16.7812Z" fill="white"/>
</g>
<mask id="mask1_2_108" style="mask-type:luminance" maskUnits="userSpaceOnUse" x="17" y="3" width="36" height="36">
<path d="M17.6667 3.5H52.3333V38.5H17.6667V3.5Z" fill="white"/>
</mask>
<g mask="url(#mask1_2_108)">
<path d="M18.5729 3.77604C18.1094 3.77604 17.7552 4.13021 17.7552 4.59375C17.7552 5.0625 18.1094 5.41667 18.5729 5.41667H31.974C33.5833 5.41667 35.0365 6.23438 35.9115 7.57813L45.5052 22.8073C45.5885 22.9167 45.6979 23.026 45.8073 23.1094L48.8177 24.6927C49.9115 25.2656 50.5677 26.3906 50.5677 27.5938V32.2135C50.5677 32.5156 50.3177 32.7604 50.0208 32.7604H46.6562C46.2708 30.599 44.3594 28.9323 42.0885 28.9323C39.8177 28.9323 37.9062 30.599 37.5208 32.7604H18.5729C18.1094 32.7604 17.7552 33.1146 17.7552 33.5781C17.7552 34.0469 18.1094 34.401 18.5729 34.401H37.5208C37.9062 36.5625 39.8177 38.2292 42.0885 38.2292C44.3594 38.2292 46.2708 36.5625 46.6562 34.401H50.0208C51.224 34.401 52.2083 33.4167 52.2083 32.2135V27.5938C52.2083 25.7604 51.1927 24.0938 49.5833 23.2448L46.7656 21.7656L37.276 6.72917C36.1302 4.86979 34.1302 3.77604 31.974 3.77604H18.5729ZM35.2552 11.1563C34.7865 11.1563 34.4323 11.5156 34.4323 11.9792V19.6354C34.4323 20.5938 34.8177 21.4688 35.474 22.151C36.1562 22.8333 37.0312 23.1875 37.9896 23.1875H42.0885C42.5521 23.1875 42.9115 22.8333 42.9115 22.3698C42.9115 21.9063 42.5521 21.5469 42.0885 21.5469H37.9896C37.4687 21.5469 37.0052 21.3594 36.6458 21C36.2917 20.6458 36.0729 20.1563 36.0729 19.6354V11.9792C36.0729 11.5156 35.7187 11.1563 35.2552 11.1563ZM42.0885 30.5729C43.7552 30.5729 45.099 31.9115 45.099 33.5781C45.099 35.25 43.7552 36.5885 42.0885 36.5885C40.4219 36.5885 39.0833 35.25 39.0833 33.5781C39.0833 31.9115 40.4219 30.5729 42.0885 30.5729Z" fill="white"/>
</g>
<path d="M77.1432 10.0573C75.8568 9.35937 74.112 8.98437 71.2682 8.98437H63.5339V32.5H68.4193V24.0677H71.2682C74.1484 24.0677 75.888 23.6146 77.1745 22.7344C79.3568 21.3854 80.2995 18.9427 80.2995 16.1302C80.2995 13.3281 79.3359 11.2292 77.1432 10.0573ZM74.3724 19.1719C73.5755 19.8542 72.3724 19.9844 70.5807 19.9844H68.4193V13.0677H70.5807C72.3255 13.0677 73.4974 13.151 74.3255 13.7865C74.9609 14.2865 75.3828 15.1198 75.3828 16.4375C75.3828 17.7865 74.9922 18.6354 74.3724 19.1719Z" fill="#FF5959"/>
<path d="M96.8457 32.5H102.627L96.3613 23.3698C96.929 23.2083 97.4186 23.0104 97.8561 22.7656C100.231 21.5156 101.195 19.1719 101.195 16.224C101.195 13.4271 100.252 11.1979 97.9551 9.97395C96.7363 9.35937 95.153 8.98437 92.1634 8.98437H84.429V32.5H89.3144V23.8281H91.3821L96.8457 32.5ZM89.3144 13.0677H91.4759C93.3665 13.0677 94.4238 13.1823 95.1738 13.75C95.8717 14.3073 96.278 15.2187 96.278 16.5365C96.278 17.9167 95.8717 18.8437 95.0749 19.401C94.3561 19.901 93.3353 19.9844 91.4759 19.9844H89.3144V13.0677Z" fill="#FF5959"/>
<path d="M116.961 32.8229C123.862 32.8229 128.972 28.1042 128.972 20.7344C128.972 13.3437 123.862 8.65625 116.961 8.65625C110.045 8.65625 104.935 13.3437 104.935 20.7344C104.935 28.1042 110.045 32.8229 116.961 32.8229ZM116.961 28.349C112.909 28.349 109.8 25.5 109.8 20.7344C109.8 15.9792 112.909 13.151 116.961 13.151C121.013 13.151 124.123 15.9792 124.123 20.7344C124.123 25.5 121.013 28.349 116.961 28.349Z" fill="url(#paint0_angular_2_108)"/>
<path d="M142.169 32.8229C147.346 32.8229 151.399 30.1875 151.399 24.2656V8.98437H146.513V23.599C146.513 27.1615 144.596 28.5104 142.169 28.5104C139.763 28.5104 137.857 27.1771 137.857 23.599V8.98437H132.977V24.2656C132.977 30.1875 137.008 32.8229 142.169 32.8229Z" fill="white"/>
<path d="M170.602 10.0573C169.315 9.35937 167.571 8.98437 164.727 8.98437H156.993V32.5H161.878V24.0677H164.727C167.607 24.0677 169.347 23.6146 170.633 22.7344C172.815 21.3854 173.758 18.9427 173.758 16.1302C173.758 13.3281 172.795 11.2292 170.602 10.0573ZM167.831 19.1719C167.034 19.8542 165.831 19.9844 164.039 19.9844H161.878V13.0677H164.039C165.784 13.0677 166.956 13.151 167.784 13.7865C168.42 14.2865 168.842 15.1198 168.842 16.4375C168.842 17.7865 168.451 18.6354 167.831 19.1719Z" fill="white"/>
<path d="M177.888 32.5H186.403C193.903 32.5 197.612 27.7812 197.612 20.7344C197.612 13.7031 193.903 8.98437 186.403 8.98437H177.888V32.5ZM182.773 28.1875V13.2812H186.159C190.487 13.2812 192.471 15.9792 192.471 20.7344C192.471 25.4844 190.487 28.1875 186.159 28.1875H182.773Z" fill="white"/>
<path d="M217.924 32.5H222.918L214.262 8.98437H208.288L199.632 32.5H204.627L206.335 27.651H216.215L217.924 32.5ZM207.767 23.5677L211.283 13.5885L214.783 23.5677H207.767Z" fill="white"/>
<path d="M240.088 8.98437H224.057V13.2812H229.672V32.5H234.505V13.2812H240.088V8.98437Z" fill="white"/>
<path d="M257.42 13.2812V8.98437H243.779V32.5H257.42V28.1875H248.696V22.8646H256.425V18.6198H248.696V13.2812H257.42Z" fill="white"/>
<path d="M274.862 32.5H280.643L274.377 23.3698C274.945 23.2083 275.434 23.0104 275.872 22.7656C278.247 21.5156 279.21 19.1719 279.21 16.224C279.21 13.4271 278.268 11.1979 275.971 9.97395C274.752 9.35937 273.169 8.98437 270.179 8.98437H262.445V32.5H267.33V23.8281H269.398L274.862 32.5ZM267.33 13.0677H269.492C271.382 13.0677 272.44 13.1823 273.19 13.75C273.888 14.3073 274.294 15.2187 274.294 16.5365C274.294 17.9167 273.888 18.8437 273.091 19.401C272.372 19.901 271.351 19.9844 269.492 19.9844H267.33V13.0677Z" fill="white"/>
</g>
<defs>
<radialGradient id="paint0_angular_2_108" cx="0" cy="0" r="1" gradientUnits="userSpaceOnUse" gradientTransform="translate(116.954 20.7396) rotate(90) scale(12.0833 12.0182)">
<stop stop-color="#FC2A2A"/>
<stop offset="0.0001" stop-color="#F8A11E"/>
<stop offset="0.515625" stop-color="#FF9900" stop-opacity="0.94"/>
</radialGradient>
<clipPath id="clip0_2_108">
<rect width="323" height="42" fill="white"/>
</clipPath>
</defs>
</svg>
